<svg
    xmlns="http://www.w3.org/2000/svg"
    width="500"
    height="100"
    viewBox="0 40 500 128"
    style="color: oklch(56% 0.021 213.5); width: 400px; height: 100px;"
>
<g xmlns="http://www.w3.org/2000/svg" id="XMLID_264_">
	<path
            fill="currentColor"
            stroke="currentColor"
            id="XMLID_551_"
            d="M235.837,111.577c0.833,0,1.672,0.065,2.497-0.014c1.461-0.14,3.061,0.535,4.345-0.7   c0.833,0,1.665,0,2.498,0c1.546,0,3.093,0.012,4.639-0.005c0.937-0.01,1.874-0.065,2.812-0.101   c0.559-0.901,1.465-0.509,2.245-0.617c0.88-0.122,1.522-1.131,2.56-0.705c0.454-0.756,1.495-0.521,2.003-1.198   c0.892-1.189,2.509-1.802,2.773-3.491c0.757-0.757,1.503-1.526,2.281-2.26c0.142-0.134,0.454-0.234,0.623-0.172   c0.948,0.344,1.397-0.652,2.2-0.785c0.599-0.099,1.323-0.481,1.742-0.869c0.864-0.801,1.784-0.378,2.672-0.505   c0.895,1.137,2.159,0.586,3.274,0.708c0.353,0.039,0.971-0.108,1.03,0.024c0.524,1.178,1.733,0.416,2.5,0.956   c0.8,0.564,1.815,0.828,2.641,1.336c0.756,0.464,1.349,1.153,2.24,1.508c0.701,0.279,0.997,1.17,1.984,1.287   c0.698,0.082,1.305,0.812,1.989,1.186c0.678,0.371,1.697-0.195,2.179,0.767c0.583,0.028,1.167,0.076,1.75,0.078   c0.817,0.002,1.246,0.996,2.211,0.752c0.671-0.17,1.423-0.078,2.131-0.012c0.305,0.029,0.657,0.226,0.864,0.458   c0.305,0.341,0.855,0.34,0.949,0.209c0.594-0.828,1.421-0.699,2.237-0.689c0.476,0.006,0.956-0.039,1.426,0.012   c0.536,0.058,0.826-0.281,1.222-0.526c0.352-0.218,0.91-0.072,1.331-0.219c0.41-0.144,0.738-0.599,1.143-0.666   c1.058-0.173,1.461-1.106,2.16-1.683c0.707-0.583,1.215-1.477,2.366-1.219c0.165,0.037,0.42-0.147,0.578-0.29   c0.59-0.534,1.081-1.122,1.968-1.317c0.409-0.09,0.869-0.64,1-1.325c0.095-0.492,0.651-1.238,1.042-1.264   c1.005-0.068,1.278-1.096,1.98-1.288c0.989-0.27,1.457-1.245,2.238-1.489c0.869-0.27,1.275-1.025,1.967-1.3   c1.633-0.651,3.046-1.963,5.008-1.719c0.82,0.102,1.667-0.029,2.495,0.029c0.892,0.063,1.865-0.357,2.642,0.564   c0.209,0.248,0.884,0.107,1.346,0.137c0.812,0.052,1.754-0.141,2.404,0.209c0.776,0.419,1.577,0.853,2.379,1.164   c0.615,0.239,0.904,0.705,1.346,1.054c0.371,0.292,0.658,0.921,1.021,0.953c1.178,0.104,1.562,1.442,2.562,1.578   c1.128,0.153,1.323,1.746,2.603,1.497c0.555,0.85,1.854,1.172,1.766,2.48c1.262,1.262,2.523,2.523,3.785,3.785   c1.216-0.192,1.02,1.237,1.791,1.56c0.814,0.341,1.647,0.68,2.353,1.195c0.575,0.419,1.144,0.107,1.699,0.232   c0.517-0.965,0.97-0.249,1.567-0.052c0.625,0.206,1.39,0.021,2.086-0.059c0.112-0.013,0.189-0.372,0.273-0.576   c0.084-0.203,0.109-0.545,0.243-0.593c0.531-0.191,1.003-0.432,1.493-0.729c0.629-0.38,1.651,0.095,2.154-0.808   c0.828,1.134,1.243,0.112,1.766-0.339c0.09-0.078,0.181-0.159,0.251-0.253c0.853-1.14,2.046-1.881,3.345-2.249   c0.973-0.276,1.24-1.285,2.231-1.547c0.799-0.211,1.724-0.517,2.328-1.249c0.903,0.205,1.263-1.006,2.156-0.826   c0.566-0.775,1.748-0.573,2.263-1.428c0.927,0.309,1.256-1.066,2.178-0.773c0.38-0.505,0.867-0.799,1.512-0.648   c0.71,0.167,0.927-0.677,1.491-0.705c0.707-0.034,1.382,0.039,1.903-0.641c0.139-0.181,0.69-0.158,1.008-0.07   c0.854,0.235,1.521,0.956,2.571,0.73c0.796-0.171,1.659-0.049,2.49-0.023c0.208,0.006,0.459,0.092,0.61,0.229   c0.527,0.481,1.069,0.962,1.493,1.527c0.134,0.179,0.019,0.708-0.164,0.925c-0.356,0.424-0.679,0.955-1.408,0.891   c-0.708-0.063-1.427-0.029-2.14-0.007c-0.337,0.01-0.825-0.031-0.983,0.164c-0.76,0.936-1.771,0.369-2.641,0.569   c-0.298,0.069-0.52,0.447-0.789,0.67c-0.694,0.575-1.138,1.397-2.217,1.573c-0.708,0.116-1.282,1.006-1.996,1.148   c-0.898,0.178-1.464,1.157-2.516,0.898c-0.243-0.06-0.743,0.197-0.848,0.432c-0.449,1.005-1.693,0.738-2.254,1.503   c-0.641,0.874-1.71,1.053-2.559,1.588c-0.742,0.467-1.628,0.713-2.344,1.209c-0.766,0.53-2.004-0.267-2.468,0.949   c-0.972-0.189-1.483,1.277-2.559,0.714c-0.749,0.611-1.591,0.836-2.562,0.738c-0.289-0.029-0.658,0.165-0.902,0.365   c-0.458,0.375-0.842,0.839-1.276,1.244c-0.244,0.228-0.399,0.568-0.859,0.523c-0.589-0.058-1.211-0.113-1.775,0.02   c-0.4,0.094-0.552,0.77-1.14,0.682c-0.773-0.116-1.621,0.286-2.308-0.517c-0.219-0.256-0.873-0.211-1.321-0.185   c-1.177,0.069-2.026-1.039-3.221-0.855c-0.58-0.744-1.763-0.639-2.214-1.521c-0.334-0.653-1.301-0.233-1.436-0.762   c-0.186-0.726-0.545-1.234-1.053-1.715c-0.429-0.406-1.077-0.794-1.176-1.282c-0.14-0.687-0.247-0.998-1.02-1.066   c-0.371-0.032-0.983-0.563-0.996-0.887c-0.054-1.392-1.558-1.096-2.047-1.92c-0.949-0.027-1.633-0.706-2.383-1.121   c-0.667-0.37-1.313-0.841-1.969-1.264c-0.749-0.482-1.883-0.42-2.267-1.453c-1.114-0.488-2.049-1.384-3.449-1.189   c-1.05,0.147-2.138,0.051-3.208,0.024c-1.428-0.037-2.853-0.106-3.718,1.368c-0.821-0.241-1.115,0.734-1.818,0.789   c-0.211,0.016-0.508,0.084-0.601,0.232c-0.228,0.363-0.285,1.071-0.544,1.141c-1.734,0.465-3.077,1.841-4.817,2.148   c-1.732,0.306-2.636,1.548-3.3,2.811c-1.36,2.586-1.304,2.547-3.429,3.904c-0.814,0.52-1.541,0.44-2.318,0.441   c-0.755,0.001-1.306,0.167-1.861,0.741c-0.528,0.547-1.25,0.963-1.96,1.257c-0.508,0.21-1.139,0.146-1.715,0.161   c-0.698,0.018-1.415-0.112-1.903,0.614c-0.085,0.126-0.585,0.17-0.633,0.092c-0.882-1.443-2.851,0.039-3.739-1.393   c-0.067-0.108-0.453-0.035-0.688-0.018c-0.835,0.062-1.52-0.085-2.251-0.655c-0.447-0.348-1.369-0.086-2.078-0.098   c-0.646-1.22-2.324-0.215-3.003-1.386c-0.03-0.052-0.29,0.044-0.336-0.014c-0.655-0.82-1.732-0.49-2.477-0.912   c-0.698-0.396-1.173-1.17-1.805-1.707c-0.228-0.194-0.709-0.091-0.938-0.285c-1.467-1.245-3.49-1.483-4.93-2.76   c-0.938,0.357-1.208-0.99-2.195-0.801c-0.794,0.152-1.515,0.138-2.237,0.707c-0.441,0.348-1.365-0.154-1.896,0.587   c-0.149,0.208-0.725,0.085-0.921,0.289c-0.723,0.756-1.719,1.148-2.455,1.798c-1.214,1.073-2.449,1.959-3.983,2.509   c-0.623,0.224,0.109,0.489,0.229,0.716c0.289,0.545,0.29,1.172-0.078,1.194c-0.93,0.054-1.492,1.081-2.532,0.833   c-0.714-0.17-0.99,0.942-1.848,0.723c-0.558-0.143-1.233-0.174-1.766,0.007c-0.847,0.288-1.557,0.879-2.575,0.708   c-0.81-0.136-1.673-0.113-2.489,0.003c-0.519,0.074-0.976,0.546-1.499,0.656c-0.57,0.12-1.193,0.091-1.777,0.012   c-0.876-0.119-1.228,1.016-2.214,0.769c-0.783-0.197-1.655-0.04-2.488-0.04c-1.649,1.418-3.608,0.507-5.417,0.678   c-0.752,0.071-1.632,0.397-2.326-0.389c-0.549-0.621-1.339-0.221-2.015-0.274c-0.828-0.065-1.664-0.015-2.497-0.015   c-0.46-1.215-1.772-0.325-2.445-0.985c-0.798-0.783-1.756-0.384-2.648-0.358c-0.311,0.009-0.275,0.263-0.103,0.487   c1.238,1.609,3.155,2.109,4.834,2.994c1.169,0.617,2.4,1.129,3.522,1.82c0.57,0.351,1.277,0.358,1.765,0.961   c0.792,0.977,2.268,1.115,2.975,2.282c0.268,0.442,0.375,0.879,0.053,1.227c-0.639,0.688-1.514,1.277-1.85,2.089   c-0.273,0.659-0.413,1.006-1.13,0.906c-0.796-0.11-1.636,0.244-2.399-0.24c-0.934-0.594-2.198-0.757-2.896-1.555   c-1.114-1.275-2.894-1.305-3.996-2.484c-1.466-0.227-2.596-1.204-3.882-1.819c-0.583-0.278-1.116-0.194-1.645-0.351   c-0.412-0.121-0.753-0.467-1.14-0.688c-0.964-0.549-2.176-0.707-2.859-1.692c-0.438-0.632-1.391-0.27-1.735-1.001   c-1.358-0.059-1.845-1.652-3.187-1.819c-0.215-0.027-0.238-0.951-0.538-1.116c-0.365-0.201-0.876-0.125-1.205-0.543   c-0.118-0.15-0.412-0.273-0.595-0.24c-0.8,0.148-1.352-0.181-1.837-0.773c-0.215-0.262-0.492-0.569-0.794-0.644   c-0.454-0.113-0.975-0.02-0.932-0.724c0.044-0.727-0.96-0.996-0.742-1.852c0.142-0.559,0.154-1.219-0.001-1.77   c-0.271-0.961,0.6-1.432,0.781-2.201c0.189-0.802,0.785-1.401,1.757-1.345c0.918-1.066,2.508-0.986,3.446-2.018   c1.305,0.204,2.264-1.092,3.583-0.826c0.668-0.902,1.647-0.725,2.559-0.703c0.737,0.018,0.992-0.95,1.853-0.756   c0.679,0.153,1.454-0.104,2.126,0.063c0.961,0.239,1.225-1.082,2.221-0.783c0.655,0.196,1.416,0.037,2.13,0.037   c0.833,0,1.665,0,2.498,0c1.189-1.022,2.625-0.685,3.987-0.705c0.888-0.013,1.628,0.849,1.641,1.83   c0.008,0.595-0.004,1.19,0.003,1.784c0.005,0.427-0.221,0.605-0.621,0.664c-1.107,0.164-2.389-0.494-3.283,0.686   c-1.067,0.008-2.137-0.018-3.201,0.046c-0.299,0.018-0.614,0.26-0.865,0.467c-0.366,0.301-0.706,0.642-1.01,1.006   c-0.406,0.485-0.867,0.691-1.521,0.665c-0.934-0.037-1.874,0.045-2.811,0.096c-0.089,0.005-0.234,0.157-0.234,0.242   c-0.001,0.083,0.147,0.239,0.233,0.241c0.926,0.022,1.703,0.424,2.54,0.769c0.712,0.294,1.641,0.078,2.473,0.054   c0.486-0.014,0.891,0.038,1.255,0.439c0.638,0.701,1.94-0.223,2.454,1.007c0.225,0.541,0.795,0.745,1.472,0.722   C232.267,111.537,234.052,111.577,235.837,111.577z M223.862,116.471c0.15-0.083,0.305-0.168,0.46-0.254   c-0.079-0.079-0.176-0.236-0.235-0.223c-0.168,0.037-0.321,0.144-0.479,0.223C223.688,116.297,223.767,116.376,223.862,116.471z"
        />
</g>
</svg>
